<svg xmlns="http://www.w3.org/2000/svg" width="512" height="512" viewBox="0 0 108 108"><defs><linearGradient id="bg" x1="0" y1="0" x2="1" y2="1"><stop stop-color="#1C2538"/><stop offset="1" stop-color="#101521"/></linearGradient><linearGradient id="mark" x1="0" y1="0" x2=".8" y2="1"><stop stop-color="#A59AF4"/><stop offset="1" stop-color="#7965D9"/></linearGradient></defs><rect width="108" height="108" rx="25" fill="url(#bg)"/><path d="M29,29 C28,28 27,29 28,33 L33,60 C34,67 43,74 54,80 C65,74 74,67 75,60 L80,33 C81,29 80,28 78,29 L66,36 C58,32 50,32 42,36 Z" fill="url(#mark)"/><path d="M48,45 C47,44.4 46,45 46,46.2 L46,63.8 C46,65 47,65.6 48,65 L63,56.2 C64,55.6 64,54.4 63,53.8 Z" fill="#FFFFFF"/><path d="M27,73 C41,85 68,85 80,66 C74,88 43,92 27,73 Z" fill="#7BD8C5"/></svg>